<?xml version="1.0" encoding="utf-8"?>
<!-- Generator: Adobe Illustrator 17.0.2, SVG Export Plug-In . SVG Version: 6.00 Build 0)  -->
<!DOCTYPE svg PUBLIC "-//W3C//DTD SVG 1.1//EN" "http://www.w3.org/Graphics/SVG/1.1/DTD/svg11.dtd">
<svg version="1.1" id="Capa_1" xmlns="http://www.w3.org/2000/svg" xmlns:xlink="http://www.w3.org/1999/xlink" x="0px" y="0px"
	 width="64px" height="64px" viewBox="0 0 64 64" enable-background="new 0 0 64 64" xml:space="preserve">
<g>
	<path d="M56.47,13.446C49.267,7.622,43.144,5.536,40.15,4.811c-1.074-0.26-2.328,0.462-3.021,1.322
		c-1.102,1.366-3.148,3.063-6.515,3.063c-3.367,0-5.413-1.697-6.515-3.063c-0.693-0.86-1.947-1.583-3.022-1.322
		c-2.993,0.725-9.116,2.811-16.319,8.635c-1.718,1.389-2.235,4.115-1.262,5.963c0.973,1.848,3.509,2.957,5.666,2.478l5.604-1.245
		c0,0-4.931,19.722-0.529,29.407l-0.924,3.874c-0.51,2.139,0.833,4.222,3,4.652l4.566,0.907c2.166,0.431,4.084-1.01,4.538-3.172
		c0.739-3.522,2.265-8.158,5.196-8.375c2.932,0.217,4.457,4.853,5.196,8.375c0.454,2.162,2.372,3.603,4.538,3.172l4.566-0.907
		c2.167-0.431,3.51-2.514,3-4.652c-0.51-2.14-0.924-3.874-0.924-3.874c4.401-9.685-0.529-29.407-0.529-29.407l5.604,1.245
		c2.157,0.479,4.693-0.63,5.666-2.478C58.705,17.561,58.188,14.835,56.47,13.446z M31.166,32.332c-2.024,0-3.667-1.456-3.667-3.254
		c0-1.722,1.511-3.115,3.416-3.232c-0.041-0.898-0.306-2.014-1.15-3.096c-2.099-2.686-2.123-4.533-2.123-4.61
		c0-0.276,0.224-0.5,0.5-0.5s0.5,0.224,0.5,0.5c0,0.012,0.049,1.611,1.91,3.995c1.027,1.315,1.33,2.675,1.363,3.757
		c1.666,0.307,2.918,1.616,2.918,3.185C34.833,30.875,33.191,32.332,31.166,32.332z"/>
	<circle cx="29.812" cy="28.375" r="0.562"/>
	<circle cx="32.25" cy="28.375" r="0.562"/>
</g>
</svg>
