<?xml version="1.0" encoding="utf-8"?>
<!-- Generator: Adobe Illustrator 17.0.2, SVG Export Plug-In . SVG Version: 6.00 Build 0)  -->
<!DOCTYPE svg PUBLIC "-//W3C//DTD SVG 1.1//EN" "http://www.w3.org/Graphics/SVG/1.1/DTD/svg11.dtd">
<svg version="1.1" id="Capa_1" xmlns="http://www.w3.org/2000/svg" xmlns:xlink="http://www.w3.org/1999/xlink" x="0px" y="0px"
	 width="64px" height="64px" viewBox="0 0 64 64" enable-background="new 0 0 64 64" xml:space="preserve">
<path d="M23.947,4.431c-9.751,0-20.114,3.013-20.114,8.597c0,0.089,0.01,0.175,0.015,0.263H3.833v7.787v0.335v2.036v27.156h0.012
	c-0.003,0.067-0.012,0.133-0.012,0.201c0,5.584,10.363,8.598,20.114,8.598c9.75,0,20.113-3.014,20.113-8.598
	c0-0.068-0.009-0.134-0.012-0.201h0.012v-5.373v-0.372V29.133V28.76v-5.312v-2.036v-0.335V13.29h-0.015
	c0.005-0.088,0.015-0.174,0.015-0.263C44.061,7.443,33.697,4.431,23.947,4.431z M6.833,21.077L6.833,21.077l0.034,0
	c0.152-1.13,1.048-2.015,2.182-2.152c2.163,0.981,4.837,1.703,7.711,2.152c2.323,0.363,4.774,0.548,7.188,0.548
	c2.414,0,4.865-0.185,7.187-0.548c2.874-0.449,5.547-1.171,7.71-2.152c1.134,0.137,2.03,1.022,2.182,2.152h0.034v0
	c0,0.04-0.018,0.082-0.022,0.122c-0.227,2.277-6.827,5.476-17.092,5.476c-10.266,0-16.866-3.199-17.093-5.476
	C6.851,21.159,6.833,21.117,6.833,21.077z M41.061,45.152c-0.01,0.065-0.036,0.165-0.09,0.291c-0.053,0.126-0.139,0.28-0.269,0.454
	c-0.077,0.103-0.164,0.21-0.277,0.325c-0.212,0.216-0.506,0.459-0.892,0.71c-0.423,0.276-0.967,0.562-1.662,0.842
	c-1.783,0.72-4.582,1.388-8.941,1.682c-0.814,0.055-1.676,0.098-2.603,0.125c-0.286,0.008-0.583,0.013-0.881,0.018v-4.362v-1.501
	v-1.503v-5.728c5.184-0.086,9.314-0.63,12.369-1.622c1.267-0.411,2.35-0.899,3.244-1.464V45.152z M42.561,44.913L42.561,44.913
	L42.561,44.913L42.561,44.913L42.561,44.913z M42.561,28.814L42.561,28.814L42.561,28.814L42.561,28.814z M38.209,15.895
	c-0.261,0.134-0.534,0.266-0.828,0.396c-0.917,0.402-1.995,0.777-3.214,1.104c-2.738,0.736-6.194,1.231-10.219,1.231
	c-4.026,0-7.482-0.495-10.22-1.231c-1.219-0.328-2.297-0.702-3.214-1.104c-0.294-0.129-0.567-0.262-0.828-0.396
	c-1.661-0.852-2.632-1.78-2.806-2.604c-0.018-0.088-0.046-0.177-0.046-0.263c0-2.282,6.667-5.597,17.114-5.597
	c10.446,0,17.113,3.314,17.113,5.597c0,0.085-0.028,0.175-0.046,0.263C40.841,14.115,39.87,15.043,38.209,15.895z M42.561,50.605
	h-0.027h-1.509c0.011,0.067,0.035,0.136,0.035,0.201c0,2.282-6.667,5.598-17.113,5.598c-10.447,0-17.114-3.315-17.114-5.598
	c0-0.065,0.025-0.134,0.035-0.201H5.36H5.333v0H5.36h1.473v-2.591v-1.881V25.75c3.783,2.571,10.583,3.924,17.114,3.924
	c6.53,0,13.331-1.354,17.113-3.924v3.303c-0.027,0.169-0.142,0.566-0.636,1.07c-1.243,1.269-5.036,3.396-16.478,3.396h-1.5v8.715
	v1.503v1.501v5.367v2.022h3v-0.025c5.802-0.097,10.283-0.767,13.413-1.997c0.651-0.256,1.243-0.536,1.776-0.84
	c0.143-0.081,0.289-0.161,0.424-0.246v1.086h1.474L42.561,50.605L42.561,50.605z"/>
<path d="M53.964,16.812c-4.498,0-7.369,6.73-7.369,11.363c0,4.071,2.166,6.684,5.869,7.228v18.398c0,0.828,0.672,1.5,1.5,1.5
	s1.5-0.672,1.5-1.5V35.403c3.703-0.544,5.869-3.157,5.869-7.228C61.333,23.542,58.462,16.812,53.964,16.812z M53.964,32.513
	c-2.98,0-4.369-1.378-4.369-4.338c0-3.908,2.327-8.363,4.369-8.363s4.369,4.455,4.369,8.363
	C58.333,31.135,56.944,32.513,53.964,32.513z"/>
</svg>
