<?xml version="1.0" encoding="utf-8"?>
<!-- Generator: Adobe Illustrator 15.0.0, SVG Export Plug-In . SVG Version: 6.00 Build 0)  -->
<!DOCTYPE svg PUBLIC "-//W3C//DTD SVG 1.1//EN" "http://www.w3.org/Graphics/SVG/1.1/DTD/svg11.dtd">
<svg version="1.1" id="Layer_1" xmlns="http://www.w3.org/2000/svg" xmlns:xlink="http://www.w3.org/1999/xlink" x="0px" y="0px"
	 width="64px" height="64px" viewBox="0 0 64 64" enable-background="new 0 0 64 64" xml:space="preserve">
<g>
	<path fill="#231F20" d="M57.496,42.035c-1.987-1.99-4.621-3.082-7.407-3.082c-0.99,0-1.977,0.139-2.938,0.416l-5.607-5.611
		c-0.079-0.076-0.158-0.152-0.241-0.225l10.589-10.585c0.802-0.806,1.244-1.872,1.244-3.007c0-1.135-0.442-2.205-1.244-3.007
		c-0.803-0.802-1.872-1.244-3.011-1.244c-1.135,0-2.201,0.442-3.007,1.244l-8.75,8.75c-0.036-0.036-0.072-0.076-0.108-0.112
		l-1.083-1.083c1.39-5.607-0.258-11.595-4.327-15.665c-3.116-3.113-7.261-4.829-11.678-4.829c-4.416,0-8.562,1.716-11.674,4.829
		c-3.112,3.112-4.829,7.258-4.829,11.674c0,4.413,1.716,8.562,4.829,11.674c3.109,3.109,7.251,4.819,11.661,4.819
		c1.354,0,2.7-0.165,4.007-0.488l1.079,1.079c0.04,0.04,0.076,0.076,0.116,0.112l-8.75,8.75c-0.806,0.802-1.245,1.871-1.245,3.007
		s0.439,2.205,1.245,3.007c0.799,0.802,1.868,1.244,3.003,1.244c1.139,0,2.205-0.442,3.007-1.244l11.249-11.245
		c0.072,0.082,0.145,0.161,0.221,0.237l5.905,5.901c-0.707,3.443,0.376,7.097,2.852,9.575c1.986,1.984,4.631,3.076,7.446,3.076
		s5.459-1.092,7.446-3.076c1.986-1.986,3.079-4.631,3.079-7.446S59.482,44.022,57.496,42.035z M11.614,12.185
		c2.218-2.218,5.172-3.439,8.314-3.439c3.146,0,6.097,1.221,8.314,3.439c2.142,2.139,3.37,5.05,3.429,8.077
		c-1.066-0.895-2.403-1.383-3.815-1.383c-1.591,0-3.083,0.621-4.208,1.743l-3.598,3.598c-1.123,1.122-1.74,2.614-1.74,4.205
		c0,1.416,0.489,2.756,1.386,3.822c-3.056-0.056-5.918-1.271-8.083-3.433c-2.218-2.218-3.436-5.172-3.436-8.314
		C8.178,17.354,9.396,14.403,11.614,12.185z"/>
</g>
</svg>
