<?xml version="1.0" encoding="iso-8859-1"?>
<!-- Generator: Adobe Illustrator 16.0.4, SVG Export Plug-In . SVG Version: 6.00 Build 0)  -->
<!DOCTYPE svg PUBLIC "-//W3C//DTD SVG 1.1//EN" "http://www.w3.org/Graphics/SVG/1.1/DTD/svg11.dtd">
<svg version="1.1" id="Capa_1" xmlns="http://www.w3.org/2000/svg" xmlns:xlink="http://www.w3.org/1999/xlink" x="0px" y="0px"
	 width="5.189px" height="15px" viewBox="0 0 5.189 15" style="enable-background:new 0 0 5.189 15;" xml:space="preserve">
<path style="fill:#010002;" d="M1.444,5.698v1.766h0.709v0.301H1.444V9.53h0.709v0.301H1.444v1.764h0.709v0.301H1.444v1.766h0.709
	v0.301h-1.01V5.397h1.01v0.301H1.444z M5.189,5.899v7.864C5.189,14.445,4.635,15,3.953,15H1.236C0.555,15,0,14.445,0,13.764V5.899
	c0-0.503,0.188-0.958,0.487-1.316C0.341,4.514,0.235,4.365,0.235,4.192V3.424c0-0.237,0.195-0.433,0.433-0.433H0.96l0.576-0.995
	L2.07,1.069C1.985,0.956,1.926,0.824,1.926,0.671C1.926,0.301,2.224,0,2.595,0s0.669,0.301,0.669,0.671
	c0,0.153-0.06,0.285-0.145,0.398l0.534,0.927l0.576,0.995h0.292c0.236,0,0.432,0.195,0.432,0.433v0.769
	c0,0.173-0.104,0.321-0.251,0.391C5.002,4.941,5.189,5.396,5.189,5.899z M4.718,5.899c0-0.522-0.256-0.982-0.646-1.273H1.117
	c-0.39,0.291-0.646,0.751-0.646,1.273v7.864c0,0.422,0.343,0.765,0.765,0.765h2.717c0.422,0,0.765-0.343,0.765-0.765V5.899z"/>
<g>
</g>
<g>
</g>
<g>
</g>
<g>
</g>
<g>
</g>
<g>
</g>
<g>
</g>
<g>
</g>
<g>
</g>
<g>
</g>
<g>
</g>
<g>
</g>
<g>
</g>
<g>
</g>
<g>
</g>
</svg>
