<?xml version="1.0" encoding="iso-8859-1"?>
<!-- Generator: Adobe Illustrator 17.0.0, SVG Export Plug-In . SVG Version: 6.00 Build 0)  -->
<!DOCTYPE svg PUBLIC "-//W3C//DTD SVG 1.1//EN" "http://www.w3.org/Graphics/SVG/1.1/DTD/svg11.dtd">
<svg version="1.1" id="Capa_1" xmlns="http://www.w3.org/2000/svg" xmlns:xlink="http://www.w3.org/1999/xlink" x="0px" y="0px"
	 width="64px" height="64px" viewBox="0 0 64 64" style="enable-background:new 0 0 64 64;" xml:space="preserve">
<g>
	<path d="M45.411,16.445c-0.285-0.108-0.568-0.141-0.846-0.103c-0.279,0.042-0.529,0.142-0.754,0.302
		c-0.223,0.161-0.414,0.366-0.571,0.615c-0.158,0.248-0.256,0.522-0.294,0.814c-0.03,0.461,0.088,0.882,0.354,1.265
		c0.264,0.38,0.579,0.639,0.945,0.776c0.493,0.187,0.963,0.16,1.416-0.077c0.453-0.236,0.758-0.589,0.917-1.057
		c0.077-0.205,0.107-0.385,0.093-0.536l-0.018,0.049c0.061-0.449-0.021-0.86-0.242-1.236C46.19,16.883,45.857,16.613,45.411,16.445z
		"/>
	<path d="M49.849,13.124c0.219-0.053,0.451-0.116,0.697-0.188c1.662-0.465,2.847-1.209,3.598-2.209
		c0.155-0.168,0.317-0.393,0.492-0.768c0.985-2.107-0.034-3.883-0.034-3.883s-0.544-0.952-0.962-1.378
		c-0.611-0.62-1.345-1.092-2.202-1.415c-0.144-0.055-0.277-0.101-0.398-0.137c-0.123-0.038-0.239-0.078-0.35-0.119
		c-0.453-0.097-0.87-0.173-1.248-0.227c-0.381-0.054-0.748-0.067-1.099-0.048c-0.354,0.022-0.705,0.09-1.057,0.203
		c-0.351,0.11-0.716,0.287-1.096,0.525c-0.142,0.091-0.273,0.232-0.392,0.423c-0.116,0.191-0.22,0.407-0.31,0.646
		c-0.126,0.334-0.227,0.66-0.302,0.975c-0.073,0.318-0.112,0.528-0.115,0.636c-0.056,0.289-0.021,0.562,0.1,0.815
		c0.121,0.255,0.304,0.446,0.546,0.572L45.694,7.54c0.205,0.133,0.374,0.201,0.507,0.206c0.136,0.006,0.247-0.03,0.339-0.104
		c0.092-0.074,0.168-0.181,0.23-0.321c0.061-0.141,0.118-0.302,0.168-0.482c0.032-0.133,0.072-0.263,0.121-0.391
		c0.053-0.143,0.13-0.251,0.23-0.322c0.379-0.382,0.833-0.569,1.355-0.562c0.525,0.007,1.023,0.126,1.497,0.36
		c0.612,0.302,1.05,0.739,1.317,1.311c0.265,0.573,0.292,1.137,0.082,1.692c-0.102,0.269-0.264,0.494-0.485,0.676
		c-0.223,0.179-0.484,0.333-0.789,0.464c-0.302,0.132-0.63,0.243-0.983,0.336c-0.353,0.095-0.707,0.183-1.066,0.267
		c-0.461,0.116-0.902,0.235-1.319,0.36c-0.419,0.123-0.79,0.296-1.109,0.52c-0.213,0.082-0.385,0.193-0.52,0.333
		c-0.135,0.141-0.244,0.294-0.325,0.462c-0.082,0.172-0.152,0.345-0.21,0.522c-0.058,0.178-0.109,0.348-0.154,0.513
		c-0.014,0.086-0.028,0.151-0.046,0.199c-0.013,0.033-0.027,0.072-0.045,0.119c-0.12,0.318-0.163,0.574-0.128,0.769
		c0.037,0.196,0.109,0.352,0.222,0.465c0.11,0.114,0.246,0.201,0.405,0.261c0.174,0.066,0.341,0.129,0.5,0.19l0.238,0.09
		c0.349,0.132,0.63,0.193,0.844,0.184c0.212-0.011,0.38-0.074,0.506-0.19c0.127-0.117,0.227-0.278,0.306-0.486
		c0.083-0.221,0.16-0.473,0.231-0.754l0.015,0.032l0.09-0.239c0.126-0.186,0.292-0.326,0.496-0.41
		c0.203-0.088,0.57-0.204,1.097-0.349l-0.032,0.015C49.438,13.227,49.63,13.176,49.849,13.124z"/>
	<path d="M27.855,9.208c-4.33,0-8.023,2.251-9.522,5.427c-0.377-0.173-0.794-0.276-1.237-0.276c-1.641,0-2.471,2.251-2.972,4.146
		c-0.46,1.741-0.689,3.943,1.092,4.47c0,0,3.231-0.739,5.144-2.442c0.652-0.583,1.488-0.704,2.205-0.202
		c1.992,1.4,6.626,3.692,15.232,3.24c0,0,0.478-2.876,0.299-5.794C37.798,12.938,33.511,9.208,27.855,9.208z"/>
	<path d="M8.955,58.713c0.208,0.036,0.413,0.054,0.616,0.054c1.719,0,3.24-1.235,3.542-2.987c0.301-1.746,0.804-3.309,1.419-4.716
		c-0.004,0.757,0.002,1.535,0.034,2.362c-0.024,0.135-0.024,0.208,0.005,0.209v5.356c0,0.993,0.805,1.8,1.8,1.8h19.649
		c0.994,0,1.799-0.807,1.799-1.8v-5.363c0.203-4.585-0.292-8.113-1.102-10.822c4.513-1.412,11.277-6.07,11.07-16.092
		c-0.041-1.986-1.646-3.578-3.672-3.523c-1.987,0.042-3.565,1.685-3.523,3.672c0.154,7.513-5.866,9.07-6.578,9.227
		c-0.282,0.058-0.543,0.157-0.793,0.273c-1.407-1.503-2.588-1.973-2.588-1.973c3.932-1.568,6.771-5.282,7.079-9.697
		c-0.72,0.035-1.436,0.057-2.13,0.057c-7.5,0-11.688-2.156-13.518-3.441c-0.387-0.27-0.824-0.209-1.223,0.145
		c-2.041,1.817-5.353,2.592-5.494,2.625l-0.167,0.037c0.091,4.72,3.075,8.723,7.251,10.321c0,0-0.25,0.019-0.654,0.135
		c-0.607-0.032-1.23,0.072-1.811,0.365c-0.472,0.239-11.595,5.996-13.948,19.619C5.683,56.513,6.997,58.375,8.955,58.713z"/>
</g>
</svg>
