<?xml version="1.0" encoding="iso-8859-1"?>
<!-- Generator: Adobe Illustrator 16.0.4, SVG Export Plug-In . SVG Version: 6.00 Build 0)  -->
<!DOCTYPE svg PUBLIC "-//W3C//DTD SVG 1.1//EN" "http://www.w3.org/Graphics/SVG/1.1/DTD/svg11.dtd">
<svg version="1.1" id="Capa_1" xmlns="http://www.w3.org/2000/svg" xmlns:xlink="http://www.w3.org/1999/xlink" x="0px" y="0px"
	 width="15px" height="13.57px" viewBox="0 0 15 13.57" style="enable-background:new 0 0 15 13.57;" xml:space="preserve">
<path style="fill:#010002;" d="M2.481,5.21l3.446,3.536v4.807H5.9v0.017H3.074v-2.076L0.19,7.685C0.075,7.542,0,7.368,0,7.176V1.322
	c0-0.458,0.372-0.831,0.832-0.831c0.457,0,0.83,0.373,0.83,0.831v3.381C1.461,4.747,1.27,4.831,1.116,4.981
	C0.676,5.412,0.665,6.12,1.095,6.562l1.573,1.617L2.882,7.97L1.307,6.356C0.992,6.031,0.999,5.51,1.321,5.193
	C1.423,5.098,1.542,5.03,1.67,4.994c0.137-0.039,0.278-0.041,0.414-0.013C2.237,5.019,2.374,5.098,2.481,5.21z M12.52,5.21
	L9.071,8.747v4.807h0.027v0.017h2.828v-2.076l2.883-3.81C14.925,7.542,15,7.368,15,7.176V1.322c0-0.458-0.372-0.831-0.832-0.831
	c-0.457,0-0.83,0.373-0.83,0.831v3.381c0.202,0.044,0.393,0.128,0.546,0.278c0.441,0.431,0.452,1.139,0.022,1.581l-1.574,1.617
	L12.117,7.97l1.576-1.614c0.314-0.326,0.308-0.846-0.016-1.164c-0.1-0.095-0.222-0.163-0.349-0.199
	c-0.135-0.039-0.277-0.041-0.413-0.013C12.764,5.019,12.627,5.098,12.52,5.21z M7.499,6.527c0.902,0,1.666-0.325,2.307-0.96
	c0.639-0.638,0.957-1.403,0.957-2.308c0-0.899-0.318-1.671-0.957-2.308C9.165,0.312,8.401,0,7.499,0c-0.9,0-1.673,0.312-2.304,0.951
	C4.552,1.588,4.237,2.36,4.237,3.259c0,0.905,0.314,1.669,0.958,2.308C5.826,6.202,6.599,6.527,7.499,6.527z"/>
<g>
</g>
<g>
</g>
<g>
</g>
<g>
</g>
<g>
</g>
<g>
</g>
<g>
</g>
<g>
</g>
<g>
</g>
<g>
</g>
<g>
</g>
<g>
</g>
<g>
</g>
<g>
</g>
<g>
</g>
</svg>
