<?xml version="1.0" encoding="utf-8"?>
<!-- Generator: Adobe Illustrator 15.0.0, SVG Export Plug-In . SVG Version: 6.00 Build 0)  -->
<!DOCTYPE svg PUBLIC "-//W3C//DTD SVG 1.1//EN" "http://www.w3.org/Graphics/SVG/1.1/DTD/svg11.dtd">
<svg version="1.1" id="Layer_1" xmlns="http://www.w3.org/2000/svg" xmlns:xlink="http://www.w3.org/1999/xlink" x="0px" y="0px"
	 width="26px" height="26px" viewBox="0 0 26 26" enable-background="new 0 0 26 26" xml:space="preserve">
<g>
	<path d="M19.738,11.094c0-2.617-2.068-4.738-4.621-4.738c-0.28,0-0.555,0.025-0.821,0.075c-0.157,0.029-0.312,0.069-0.463,0.114
		l1.284,4.55H19.738z"/>
	<path d="M9.512,11.748c-0.021-0.361-0.13-0.941-0.563-1.483C8.491,9.691,7.793,9.312,6.877,9.126c-0.104-0.122-0.258-0.2-0.431-0.2
		H5.845c-0.315,0-0.572,0.256-0.572,0.572s0.256,0.572,0.572,0.572h0.601c0.14,0,0.266-0.052,0.365-0.135
		c0.673,0.15,1.176,0.425,1.499,0.822c0.292,0.36,0.375,0.746,0.396,0.991H8.683c0,2.505,2.482,4.537,5.545,4.537
		c3.062,0,5.544-2.031,5.544-4.537H9.512z"/>
	<path d="M12.043,16.486c-0.871,0-1.579,0.708-1.579,1.579s0.708,1.579,1.579,1.579s1.579-0.708,1.579-1.579
		S12.914,16.486,12.043,16.486z M12.043,18.838c-0.426,0-0.773-0.347-0.773-0.772s0.347-0.773,0.773-0.773
		c0.426,0,0.773,0.348,0.773,0.773S12.469,18.838,12.043,18.838z"/>
	<path d="M16.302,16.486c-0.871,0-1.58,0.708-1.58,1.579s0.709,1.579,1.58,1.579c0.87,0,1.579-0.708,1.579-1.579
		S17.172,16.486,16.302,16.486z M16.302,18.838c-0.427,0-0.773-0.347-0.773-0.772s0.347-0.773,0.773-0.773
		c0.426,0,0.772,0.348,0.772,0.773S16.728,18.838,16.302,18.838z"/>
</g>
</svg>
