<?xml version="1.0" encoding="iso-8859-1"?>
<!-- Generator: Adobe Illustrator 17.0.0, SVG Export Plug-In . SVG Version: 6.00 Build 0)  -->
<!DOCTYPE svg PUBLIC "-//W3C//DTD SVG 1.1//EN" "http://www.w3.org/Graphics/SVG/1.1/DTD/svg11.dtd">
<svg version="1.1" id="Capa_1" xmlns="http://www.w3.org/2000/svg" xmlns:xlink="http://www.w3.org/1999/xlink" x="0px" y="0px"
	 width="64px" height="64px" viewBox="0 0 64 64" style="enable-background:new 0 0 64 64;" xml:space="preserve">
<g>
	<path d="M39.917,46.818c-0.63-0.901-1.105-2.33-0.354-7.423c0.784,0.94,2.368,2.418,4.437,2.188c3-0.333-2.167-0.905-0.75-4.577
		c1.417-3.673,7.657-20.756,1.703-27.256S27.417,2.25,22.667,7S14,21.417,19.917,33.667c0,0,2.81,5.333,0.572,7
		c0,0,3.839,0.528,5.223-1.66c0.701,4.552,0.469,6.324-0.023,7.337C17.515,48.001,4.111,52.037,2,61.3h30h30
		C58.566,52.821,47.603,48.723,39.917,46.818z M26.128,37.15c-0.007-0.048-0.004-0.096-0.013-0.144
		c-0.032-0.167-0.084-0.333-0.142-0.5c-0.85-2.439-4.185-4.941-2.64-9.355c-0.029,0.399,0.127,1.05,1.001,2.016
		c1.583,1.75-3-12.083,1.833-14.167c0,0,11.667,3.339,9.333,9.836c0,0,3.667-2.169,4-4.003s1.167-0.333,1,2.5
		c0,0,2.671-1.139,3.844-3.044c-0.01,2.312-0.254,4.918-0.747,7.826l-1,5.468c-0.795,0.888-1.749,1.906-2.751,2.923
		c-0.164,0.167-0.329,0.334-0.496,0.5c-0.168,0.168-0.338,0.334-0.507,0.5c-2.515,2.464-5.111,4.666-6.177,4.666
		c-1.065,0-3.661-2.202-6.176-4.666C26.369,37.387,26.248,37.269,26.128,37.15z M32.667,56.384c-4.985,0-9.042-2.299-9.042-5.125
		c0-0.915,0.454-1.823,1.313-2.627l0.118-0.11c0.208-0.184,0.441-0.363,0.692-0.533l0.15-0.152c0.359-0.452,0.723-0.91,0.965-1.722
		c0.355-1.191,0.444-3.155-0.121-6.973c2.219,2.09,4.628,4.032,5.924,4.032c1.296,0,3.705-1.942,5.924-4.032
		c-0.629,4.251-0.445,6.203,0.022,7.367c0.238,0.595,0.55,0.986,0.861,1.378l0.111,0.104c0.254,0.172,0.489,0.354,0.698,0.539
		l0.112,0.104c0.859,0.804,1.313,1.712,1.313,2.627C41.708,54.085,37.652,56.384,32.667,56.384z"/>
</g>
</svg>
