<?xml version="1.0" encoding="utf-8"?>
<!-- Generator: Adobe Illustrator 16.0.4, SVG Export Plug-In . SVG Version: 6.00 Build 0)  -->
<!DOCTYPE svg PUBLIC "-//W3C//DTD SVG 1.1//EN" "http://www.w3.org/Graphics/SVG/1.1/DTD/svg11.dtd">
<svg version="1.1" id="Capa_1" xmlns="http://www.w3.org/2000/svg" xmlns:xlink="http://www.w3.org/1999/xlink" x="0px" y="0px"
	 width="64px" height="64px" viewBox="0 0 64 64" enable-background="new 0 0 64 64" xml:space="preserve">
<g>
	<path d="M45.408,32.798H15.68c-1.481,0-1.509,1.201-1.509,2.685v24.752h33.593V35.482C47.764,34.001,46.887,32.798,45.408,32.798z
		 M43.725,46.389c0,0.166-0.139,0.303-0.303,0.303h-1.676c-0.055,0-0.098,0.043-0.098,0.098v1.677c0,0.164-0.133,0.298-0.303,0.298
		h-1.398c-0.17,0-0.303-0.134-0.303-0.298v-1.677c0-0.055-0.043-0.098-0.098-0.098h-1.675c-0.166,0-0.304-0.137-0.304-0.303v-1.399
		c0-0.169,0.138-0.304,0.304-0.304h1.675c0.055,0,0.098-0.043,0.098-0.1V42.91c0-0.16,0.133-0.297,0.303-0.297h1.398
		c0.17,0,0.303,0.137,0.303,0.297v1.676c0,0.057,0.043,0.1,0.098,0.1h1.676c0.164,0,0.303,0.135,0.303,0.304V46.389z"/>
	<path d="M21.85,10.444c1.028,0.215,2.226,0.382,3.588,0.446c0.552,0.026,1.186-0.385,1.526-0.82
		c0.847-1.088,2.16-1.791,3.646-1.791c1.487-0.001,2.801,0.703,3.648,1.792c0.34,0.436,0.975,0.848,1.525,0.823
		c1.638-0.072,3.04-0.294,4.197-0.568c0.537-0.128,0.693-0.613,0.321-1.021c-2.312-2.536-5.635-4.133-9.337-4.133
		c-3.768,0-7.14,1.653-9.455,4.267C21.144,9.852,21.309,10.331,21.85,10.444z"/>
	<path d="M30.968,30.476c6.986,0,12.65-5.668,12.65-12.654c0-1.116-0.152-2.195-0.427-3.224c-0.144-0.534-0.719-0.809-1.25-0.657
		c-1.617,0.467-3.674,0.862-6.153,0.958c-0.552,0.022-1.187,0.435-1.524,0.87c-0.847,1.093-2.163,1.8-3.652,1.8
		c-1.49,0-2.808-0.707-3.654-1.8c-0.338-0.436-0.972-0.851-1.523-0.873c-2.16-0.089-3.998-0.404-5.502-0.795
		c-0.534-0.14-1.107,0.15-1.241,0.687c-0.242,0.972-0.374,1.987-0.374,3.034C18.318,24.808,23.979,30.476,30.968,30.476z"/>
	<path d="M30.611,9.178c-2.069,0-3.746,1.677-3.746,3.746c0,2.069,1.677,3.746,3.746,3.746s3.747-1.677,3.747-3.746
		C34.357,10.855,32.68,9.178,30.611,9.178z M30.611,15.472c-1.407,0-2.548-1.141-2.548-2.548c0-1.407,1.141-2.548,2.548-2.548
		c1.407,0,2.548,1.141,2.548,2.548C33.159,14.331,32.018,15.472,30.611,15.472z"/>
	<path d="M20.165,13.271c1.372,0.336,3.028,0.603,4.96,0.685c0.552,0.023,0.94-0.209,0.901-0.5
		c-0.022-0.174-0.035-0.351-0.035-0.531c0-0.161,0.009-0.319,0.025-0.476c0.027-0.262-0.375-0.472-0.927-0.498
		c-1.556-0.073-2.911-0.278-4.059-0.537c-0.539-0.121-1.16,0.162-1.395,0.663l-0.014,0.029
		C19.389,12.606,19.628,13.139,20.165,13.271z"/>
	<path d="M35.204,12.448c0.017,0.157,0.024,0.315,0.024,0.477c0,0.18-0.014,0.356-0.035,0.529c-0.037,0.292,0.353,0.523,0.904,0.5
		c2.204-0.094,4.051-0.429,5.522-0.832c0.532-0.146,0.745-0.68,0.481-1.165l-0.021-0.034c-0.258-0.487-0.899-0.748-1.437-0.614
		c-1.233,0.307-2.742,0.558-4.514,0.641C35.579,11.975,35.177,12.186,35.204,12.448z"/>
	<path d="M29.562,11.01c-0.965,0.522-1.126,1.726-1.133,1.777c-0.034,0.275,0.161,0.525,0.434,0.559
		c0.021,0.003,0.042,0.004,0.063,0.004c0.248,0,0.463-0.185,0.496-0.438c0.001-0.007,0.115-0.751,0.617-1.023
		c0.242-0.131,0.333-0.435,0.201-0.678C30.107,10.967,29.804,10.88,29.562,11.01z"/>
</g>
</svg>
