<?xml version="1.0" encoding="utf-8"?>
<!-- Generator: Adobe Illustrator 16.0.0, SVG Export Plug-In . SVG Version: 6.00 Build 0)  -->
<!DOCTYPE svg PUBLIC "-//W3C//DTD SVG 1.1//EN" "http://www.w3.org/Graphics/SVG/1.1/DTD/svg11.dtd">
<svg version="1.1" id="Layer_13" xmlns="http://www.w3.org/2000/svg" xmlns:xlink="http://www.w3.org/1999/xlink" x="0px" y="0px"
	 width="100px" height="100px" viewBox="0 0 100 100" enable-background="new 0 0 100 100" xml:space="preserve">
<path d="M74.353,31.351H25.648C15.365,31.351,6.999,39.717,6.999,50s8.366,18.649,18.649,18.649h48.704
	c10.282,0,18.648-8.366,18.648-18.649S84.635,31.351,74.353,31.351z M30.58,38.781c-12.984,0-13.875,6.908-13.882,6.979
	c-0.102,0.948-0.903,1.652-1.837,1.652c-0.065,0-0.132-0.003-0.198-0.011c-1.017-0.108-1.752-1.021-1.643-2.036
	c0.045-0.42,1.289-10.283,17.56-10.283c1.021,0,1.85,0.828,1.85,1.85S31.602,38.781,30.58,38.781z M74.353,64.025H58.632V35.975
	h15.721c7.733,0,14.024,6.292,14.024,14.025S82.086,64.025,74.353,64.025z"/>
</svg>
