<?xml version="1.0" encoding="utf-8"?>
<!-- Generator: Adobe Illustrator 14.0.0, SVG Export Plug-In  -->
<!DOCTYPE svg PUBLIC "-//W3C//DTD SVG 1.1//EN" "http://www.w3.org/Graphics/SVG/1.1/DTD/svg11.dtd" [
	<!ENTITY ns_flows "http://ns.adobe.com/Flows/1.0/">
]>
<svg version="1.1"
	 xmlns="http://www.w3.org/2000/svg" xmlns:xlink="http://www.w3.org/1999/xlink" xmlns:a="http://ns.adobe.com/AdobeSVGViewerExtensions/3.0/"
	 x="0px" y="0px" width="800px" height="800px" viewBox="0.5 2.14 800 800" enable-background="new 0.5 2.14 800 800"
	 xml:space="preserve">
<defs>
</defs>
<rect x="0.5" y="0.5" display="none" fill="#54C6FF" stroke="#FF0000" width="800.57" height="801.64"/>
<g display="none">
	<g display="inline">
		<path d="M551.329,402.977c-0.022,5.595-0.29,11.172-0.808,16.744c-0.128,1.375-0.289,2.746-0.45,4.117
			c-0.58,4.944,0.787-5.245,0.051-0.335c-0.472,3.146-1.069,6.273-1.717,9.389c-1.098,5.285-2.51,10.501-4.104,15.656
			c-0.791,2.557-1.672,5.084-2.583,7.601c-0.454,1.253-0.937,2.496-1.42,3.738c-0.325,0.826-0.656,1.648-0.993,2.469
			c1.373-3.261,1.594-3.809,0.659-1.641c-4.382,10.085-9.853,19.678-16.082,28.729c-0.986,1.433-6.455,8.681-1.945,2.824
			c-1.6,2.076-3.269,4.098-4.96,6.099c-3.663,4.333-7.588,8.439-11.658,12.389c-3.761,3.647-7.726,7.078-11.802,10.368
			c-3.748,3.024,4.303-3.278,0.463-0.368c-1.046,0.793-2.108,1.562-3.172,2.329c-2.484,1.795-5.036,3.494-7.613,5.153
			c-4.433,2.854-9.026,5.452-13.702,7.885c-2.348,1.222-4.737,2.361-7.14,3.472c-1.204,0.558-2.421,1.086-3.639,1.615
			c6.905-3.001,0.916-0.403-0.591,0.183c-10.473,4.071-21.38,6.971-32.441,8.902c-1.349,0.236-2.703,0.439-4.057,0.642
			c-4.969,0.746,5.533-0.651,0.529-0.064c-2.754,0.323-5.518,0.546-8.282,0.735c-6.069,0.417-12.16,0.44-18.237,0.22
			c-2.784-0.102-5.562-0.303-8.337-0.538c-1.733-0.147-11.074-1.354-3.805-0.324c-5.839-0.828-11.62-2.027-17.339-3.455
			c-5.212-1.301-10.343-2.91-15.406-4.698c-2.514-0.887-4.995-1.863-7.463-2.867c6.16,2.506,1.705,0.688,0.429,0.121
			c-1.615-0.717-3.209-1.477-4.801-2.243c-9.887-4.761-19.243-10.585-28.033-17.143c5.918,4.415-1.265-1.103-2.605-2.219
			c-2.013-1.675-3.968-3.419-5.902-5.185c-4.19-3.825-8.145-7.901-11.936-12.119c-1.751-1.948-3.436-3.955-5.096-5.981
			c-0.916-1.116-3.836-4.931,0.336,0.488c-0.8-1.039-1.577-2.097-2.353-3.153c-3.371-4.592-6.458-9.387-9.356-14.289
			c-2.688-4.549-5.111-9.25-7.366-14.027c-0.566-1.199-1.104-2.411-1.642-3.623c-1.994-4.492,2.118,5.228,0.263,0.67
			c-1.173-2.884-2.233-5.812-3.247-8.756c-1.752-5.089-3.201-10.277-4.462-15.508c-0.637-2.641-1.179-5.303-1.688-7.971
			c-0.257-1.341-0.481-2.688-0.705-4.035c-0.257-1.544-1.114-8.166-0.191-0.81c-1.449-11.549-1.584-23.246-0.695-34.844
			c0.211-2.755,0.522-5.502,0.866-8.244c-0.912,7.266,0.383-1.968,0.697-3.686c1.055-5.768,2.476-11.464,4.119-17.09
			c1.5-5.134,3.302-10.176,5.279-15.144c1.791-4.5-2.086,4.846-0.159,0.41c0.528-1.216,1.085-2.42,1.642-3.624
			c1.295-2.801,2.699-5.55,4.144-8.275c2.467-4.654,5.202-9.163,8.087-13.568c1.439-2.197,2.953-4.343,4.49-6.472
			c0.824-1.141,3.754-4.927-0.335,0.385c1.066-1.384,2.168-2.74,3.276-4.091c6.919-8.441,14.728-16.131,23.11-23.11
			c1.007-0.838,2.033-1.654,3.059-2.469c-5.35,4.25-1.598,1.265-0.438,0.398c2.104-1.57,4.262-3.067,6.436-4.538
			c4.725-3.199,9.643-6.105,14.662-8.816c2.327-1.256,4.696-2.432,7.078-3.579c1.664-0.801,10.217-4.479,2.919-1.443
			c5.348-2.225,10.831-4.112,16.376-5.78c5.18-1.558,10.449-2.806,15.752-3.864c2.68-0.534,5.378-0.972,8.081-1.377
			c4.969-0.745-5.533,0.652-0.529,0.065c1.833-0.215,3.67-0.378,5.509-0.534c11.598-0.984,23.292-0.66,34.844,0.695
			c2.386,0.306,1.821,0.221-1.691-0.253c1.355,0.192,2.706,0.417,4.057,0.642c2.686,0.447,5.354,0.99,8.015,1.565
			c4.834,1.044,9.606,2.356,14.33,3.818c4.678,1.447,9.272,3.151,13.808,4.997c-6.781-2.759,1.612,0.808,3.18,1.547
			c2.391,1.128,4.742,2.34,7.077,3.579c4.268,2.262,8.41,4.753,12.47,7.368c1.84,1.185,3.644,2.427,5.438,3.681
			c1.075,0.752,2.133,1.529,3.19,2.305c3.867,2.839-4.187-3.259-0.409-0.304c7.908,6.187,15.194,13.147,21.903,20.61
			c1.459,1.624,2.869,3.291,4.265,4.968c0.839,1.007,1.654,2.033,2.469,3.059c-4.25-5.35-1.264-1.598-0.398-0.437
			c2.881,3.86,5.553,7.873,8.098,11.961c2.555,4.105,4.888,8.346,7.086,12.651c1.204,2.359,2.326,4.759,3.419,7.171
			c0.625,1.379,2.518,5.906-0.227-0.689c0.511,1.229,0.994,2.47,1.477,3.711c3.577,9.201,6.237,18.742,8.167,28.417
			c0.445,2.232,0.818,4.478,1.174,6.725c0.23,1.458,0.853,6.428-0.022-0.542c0.172,1.37,0.312,2.744,0.45,4.117
			C551.083,391.796,551.307,397.388,551.329,402.977c0.049,12.256,9.988,22.585,22.343,22.667
			c12.158,0.08,22.717-10.085,22.667-22.343c-0.201-49.917-19.492-97.715-53.665-134.029
			c-33.801-35.919-81.232-56.731-130.193-59.695c-50.063-3.031-99.04,15.141-137.032,47.262
			c-37.684,31.859-59.997,78.113-65.69,126.646c-5.581,47.573,8.727,98.116,37.9,136.003c29.808,38.712,72.693,66.392,121.245,74.47
			c49.437,8.227,101.046-1.983,142.545-30.542c40.11-27.604,69.388-69.67,80.081-117.315c3.139-13.983,4.752-28.471,4.81-42.799
			c0.05-12.258-10.062-22.586-22.343-22.667C561.763,380.553,551.378,390.719,551.329,402.977z"/>
	</g>
</g>
<g>
	<g>
		<linearGradient id="SVGID_1_" gradientUnits="userSpaceOnUse" x1="220.1572" y1="361.0156" x2="613.6318" y2="361.0156">
			<stop  offset="0" style="stop-color:#FFFFFF"/>
			<stop  offset="1" style="stop-color:#000000"/>
		</linearGradient>
		<path fill="url(#SVGID_1_)" d="M228.507,394.772h21.564c0,9.535,9.739,11.124,14.608,11.351c4.058,0,9.855-0.907,9.855-5.675
			c0-8.854-44.52-5.108-44.52-34.053c0-16.8,16.231-24.405,27.593-24.405c9.738,0,19.593,3.065,24.23,11.578l1.16-9.535h19.941
			v28.491h-20.984c0-8.4-6.725-13.167-14.84-13.167c-3.362,0-8,2.043-8,6.016c0,11.692,45.911,8.968,45.911,35.643
			c0,17.707-16.927,24.064-30.723,24.064c-11.709,0-19.825-5.335-24.231-10.443l-1.275,8.74h-20.289V394.772z"/>
		<linearGradient id="SVGID_2_" gradientUnits="userSpaceOnUse" x1="220.1572" y1="361.0156" x2="613.6318" y2="361.0156">
			<stop  offset="0" style="stop-color:#FFFFFF"/>
			<stop  offset="1" style="stop-color:#000000"/>
		</linearGradient>
		<path fill="url(#SVGID_2_)" d="M390.695,373.546h-17.042v-14.529h-9.739v49.264h9.623v15.097h-43.128V408.28h9.506v-49.264h-9.97
			v14.529h-17.042v-29.513h77.793V373.546z"/>
		<linearGradient id="SVGID_3_" gradientUnits="userSpaceOnUse" x1="220.1572" y1="361.0156" x2="613.6318" y2="361.0156">
			<stop  offset="0" style="stop-color:#FFFFFF"/>
			<stop  offset="1" style="stop-color:#000000"/>
		</linearGradient>
		<path fill="url(#SVGID_3_)" d="M442.86,423.377v-14.87h11.014l-2.435-7.719h-23.768l-2.435,7.719h9.043v14.87h-36.867v-14.87
			h7.884l15.651-49.831h-4.754v-14.643h44.52l20.521,64.474h8.116v14.87H442.86z M447.149,387.167l-7.651-24.518l-7.536,24.518
			H447.149z"/>
		<linearGradient id="SVGID_4_" gradientUnits="userSpaceOnUse" x1="220.1572" y1="361.0156" x2="613.6318" y2="361.0156">
			<stop  offset="0" style="stop-color:#FFFFFF"/>
			<stop  offset="1" style="stop-color:#000000"/>
		</linearGradient>
		<path fill="url(#SVGID_4_)" d="M531.081,379.789c0.464-2.27,3.015-7.038,4.29-9.762l6.376-11.465h-6.376v-14.529h31.187v14.529
			h-6.261l-21.448,36.891v13.167h6.493v14.756h-37.1v-14.756h6.607v-13.395l-22.491-36.664h-5.681v-14.529h39.65v14.529h-6.029
			l6.725,12.032c0.695,2.157,3.13,7.265,3.594,9.194H531.081z"/>
	</g>
	<rect x="220.157" y="214.646" fill="none" width="350.686" height="310.715"/>
	<text transform="matrix(1.0214 0 0 1 225.6089 423.377)"><tspan x="0" y="0" fill="#FFFFFF" stroke="#FFFFFF" font-family="'ChunkFive-Roman'" font-size="113.5031" letter-spacing="2.937">ST</tspan><tspan x="166.507" y="0" fill="#FFFFFF" stroke="#FFFFFF" font-family="'ChunkFive-Roman'" font-size="113.5031" letter-spacing="-2.937">AY</tspan></text>
</g>
<rect x="201.681" y="214.646" fill="none" width="387.637" height="276.787"/>
<text transform="matrix(1.0214 0 0 1 303.9985 317.2358)"><tspan x="0" y="0" fill="#FFFFFF" font-family="'ChunkFive-Roman'" font-size="51.0764">Pro</tspan><tspan x="83.611" y="0" fill="#FFFFFF" font-family="'ChunkFive-Roman'" font-size="51.0764" letter-spacing="0.979">jec</tspan><tspan x="160.632" y="0" fill="#FFFFFF" font-family="'ChunkFive-Roman'" font-size="51.0764">t</tspan></text>
<path fill="none" d="M643.781,406.892c0,134.253-111.16,243.087-248.281,243.087c-137.123,0-248.281-108.834-248.281-243.087
	c0-134.252,111.158-243.086,248.281-243.086C532.621,163.806,643.781,291.557,643.781,406.892z"/>
<text transform="matrix(0.4731 -0.9052 0.8863 0.4632 182.8701 305.6738)" fill="#FFFFFF" font-family="'ChunkFive-Roman'" font-size="34.0509"> </text>
<text transform="matrix(0.547 -0.8626 0.8445 0.5355 192.1338 288.897)" fill="#FFFFFF" font-family="'ChunkFive-Roman'" font-size="34.0509"> </text>
<text transform="matrix(0.6165 -0.8143 0.7973 0.6036 202.7798 272.9233)" fill="#FFFFFF" font-family="'ChunkFive-Roman'" font-size="34.0509"> </text>
<text transform="matrix(0.7057 -0.7384 0.7229 0.6909 214.251 257.981)" fill="#FFFFFF" font-family="'ChunkFive-Roman'" font-size="34.0509">S</text>
<text transform="matrix(0.7981 -0.6373 0.624 0.7814 238.7466 233.5986)" fill="#FFFFFF" font-family="'ChunkFive-Roman'" font-size="34.0509">e</text>
<text transform="matrix(0.8649 -0.5433 0.532 0.8468 261.834 216.0576)" fill="#FFFFFF" font-family="'ChunkFive-Roman'" font-size="34.0509">r</text>
<text transform="matrix(0.9226 -0.4381 0.429 0.9033 282.7627 203.3696)" fill="#FFFFFF" font-family="'ChunkFive-Roman'" font-size="34.0509">v</text>
<text transform="matrix(0.9657 -0.3326 0.3257 0.9455 311.5312 190.6401)" fill="#FFFFFF" font-family="'ChunkFive-Roman'" font-size="34.0509">i</text>
<text transform="matrix(0.9954 -0.229 0.2242 0.9745 332.1597 183.9121)" fill="#FFFFFF" font-family="'ChunkFive-Roman'" font-size="34.0509">c</text>
<text transform="matrix(1.0156 -0.1087 0.1064 0.9943 360.1045 178.0938)" fill="#FFFFFF" font-family="'ChunkFive-Roman'" font-size="34.0509">e</text>
<text transform="matrix(1.0212 0.019 -0.0186 0.9998 388.8286 175.5532)" fill="#FFFFFF" font-family="'ChunkFive-Roman'" font-size="34.0509">s</text>
<text transform="matrix(1.0138 0.1245 -0.1218 0.9925 416.707 176.7397)" fill="#FFFFFF" font-family="'ChunkFive-Roman'" font-size="34.0509"> </text>
<text transform="matrix(0.9969 0.2222 -0.2176 0.976 435.5244 179.4751)" fill="#FFFFFF" font-family="'ChunkFive-Roman'" font-size="34.0509">•</text>
<text transform="matrix(0.9715 0.3154 -0.3088 0.9511 457.3154 184.9224)" fill="#FFFFFF" font-family="'ChunkFive-Roman'" font-size="34.0509"> </text>
<text transform="matrix(0.9284 0.4258 -0.4169 0.9089 475.1426 190.8618)" fill="#FFFFFF" font-family="'ChunkFive-Roman'" font-size="34.0509">T</text>
<text transform="matrix(0.8641 0.5446 -0.5332 0.846 505.9561 205.9014)" fill="#FFFFFF" font-family="'ChunkFive-Roman'" font-size="34.0509">o</text>
<text transform="matrix(0.8074 0.6255 -0.6124 0.7905 531.1504 222.7021)" fill="#FFFFFF" font-family="'ChunkFive-Roman'" font-size="34.0509"> </text>
<text transform="matrix(0.7551 0.6878 -0.6734 0.7393 546.125 234.7529)" fill="#FFFFFF" font-family="'ChunkFive-Roman'" font-size="34.0509">•</text>
<text transform="matrix(0.6989 0.7448 -0.7292 0.6843 562.5381 250.354)" fill="#FFFFFF" font-family="'ChunkFive-Roman'" font-size="34.0509"> </text>
<text transform="matrix(0.6147 0.8157 -0.7986 0.6019 575.4697 264.1514)" fill="#FFFFFF" font-family="'ChunkFive-Roman'" font-size="34.0509">A</text>
<text transform="matrix(0.5064 0.887 -0.8685 0.4958 597.9268 295.5532)" fill="#FFFFFF" font-family="'ChunkFive-Roman'" font-size="34.0509">s</text>
<text transform="matrix(0.4029 0.9385 -0.9189 0.3945 611.2168 319.9531)" fill="#FFFFFF" font-family="'ChunkFive-Roman'" font-size="34.0509">s</text>
<text transform="matrix(0.2981 0.9769 -0.9565 0.2918 621.5518 345.8218)" fill="#FFFFFF" font-family="'ChunkFive-Roman'" font-size="34.0509">i</text>
<text transform="matrix(0.1792 1.0055 -0.9845 0.1754 627.4609 366.5244)" fill="#FFFFFF" font-family="'ChunkFive-Roman'" font-size="34.0509">s</text>
<text transform="matrix(0.041 1.0205 -0.9992 0.0402 631.4883 393.7402)" fill="#FFFFFF" font-family="'ChunkFive-Roman'" font-size="34.0509">t</text>
<text transform="matrix(-0.0626 1.0195 -0.9981 -0.0613 631.7158 416.6357)" fill="#FFFFFF" font-family="'ChunkFive-Roman'" font-size="34.0509"> </text>
<text transform="matrix(-0.1555 1.0095 -0.9883 -0.1522 630.1523 435.6475)" fill="#FFFFFF" font-family="'ChunkFive-Roman'" font-size="34.0509">•</text>
<text transform="matrix(-0.2477 0.9909 -0.9701 -0.2425 626.1807 457.7793)" fill="#FFFFFF" font-family="'ChunkFive-Roman'" font-size="34.0509"> </text>
<text transform="matrix(-0.3604 0.9557 -0.9357 -0.3528 621.4561 475.999)" fill="#FFFFFF" font-family="'ChunkFive-Roman'" font-size="34.0509">Y</text>
<text transform="matrix(-0.4886 0.8969 -0.8782 -0.4784 609.04 506.6641)" fill="#FFFFFF" font-family="'ChunkFive-Roman'" font-size="34.0509">o</text>
<text transform="matrix(-0.6039 0.8237 -0.8065 -0.5913 594.2266 532.5986)" fill="#FFFFFF" font-family="'ChunkFive-Roman'" font-size="34.0509">u</text>
<text transform="matrix(-0.6961 0.7475 -0.7318 -0.6815 574.6084 557.8945)" fill="#FFFFFF" font-family="'ChunkFive-Roman'" font-size="34.0509">t</text>
<text transform="matrix(-0.7794 0.66 -0.6462 -0.7631 558.9209 574.3105)" fill="#FFFFFF" font-family="'ChunkFive-Roman'" font-size="34.0509">h</text>
<rect x="146.253" y="411.858" fill="none" width="498.493" height="103.571"/>
<text transform="matrix(1.0214 0 0 1 221.0562 472.5586)" fill="#FFFFFF" font-family="'ACaslonPro-Regular'" font-size="32.6321">Healthy • Informed • Safe</text>
</svg>
