<?xml version="1.0" encoding="utf-8"?>
<!-- Generator: Adobe Illustrator 14.0.0, SVG Export Plug-In  -->
<!DOCTYPE svg PUBLIC "-//W3C//DTD SVG 1.1//EN" "http://www.w3.org/Graphics/SVG/1.1/DTD/svg11.dtd" [
	<!ENTITY ns_flows "http://ns.adobe.com/Flows/1.0/">
]>
<svg version="1.1"
	 xmlns="http://www.w3.org/2000/svg" xmlns:xlink="http://www.w3.org/1999/xlink" xmlns:a="http://ns.adobe.com/AdobeSVGViewerExtensions/3.0/"
	 x="0px" y="0px" width="800px" height="800px" viewBox="1 2.14 800 800" enable-background="new 1 2.14 800 800"
	 xml:space="preserve">
<defs>
</defs>
<rect x="1" y="0.5" display="none" fill="#54C6FF" stroke="#FF0000" width="800.57" height="801.64"/>
<g display="none">
	<g display="inline">
		<path d="M551.829,402.977c-0.022,5.595-0.29,11.172-0.808,16.744c-0.128,1.375-0.289,2.746-0.45,4.117
			c-0.58,4.944,0.787-5.245,0.051-0.335c-0.472,3.146-1.069,6.273-1.717,9.389c-1.098,5.285-2.51,10.501-4.104,15.656
			c-0.791,2.557-1.672,5.084-2.583,7.601c-0.454,1.253-0.937,2.496-1.42,3.738c-0.325,0.826-0.656,1.648-0.993,2.469
			c1.373-3.261,1.594-3.809,0.659-1.641c-4.382,10.085-9.853,19.678-16.082,28.729c-0.986,1.433-6.455,8.681-1.945,2.824
			c-1.6,2.076-3.269,4.098-4.96,6.099c-3.663,4.333-7.588,8.439-11.658,12.389c-3.761,3.647-7.726,7.078-11.802,10.368
			c-3.748,3.024,4.303-3.278,0.463-0.368c-1.046,0.793-2.108,1.562-3.172,2.329c-2.484,1.795-5.036,3.494-7.613,5.153
			c-4.433,2.854-9.026,5.452-13.702,7.885c-2.348,1.222-4.737,2.361-7.14,3.472c-1.204,0.558-2.421,1.086-3.639,1.615
			c6.905-3.001,0.916-0.403-0.591,0.183c-10.473,4.071-21.38,6.971-32.441,8.902c-1.349,0.236-2.703,0.439-4.057,0.642
			c-4.969,0.746,5.533-0.651,0.529-0.064c-2.754,0.323-5.518,0.546-8.282,0.735c-6.069,0.417-12.16,0.44-18.237,0.22
			c-2.784-0.102-5.562-0.303-8.337-0.538c-1.733-0.147-11.074-1.354-3.805-0.324c-5.839-0.828-11.62-2.027-17.339-3.455
			c-5.212-1.301-10.343-2.91-15.406-4.698c-2.514-0.887-4.995-1.863-7.463-2.867c6.16,2.506,1.705,0.688,0.429,0.121
			c-1.615-0.717-3.209-1.477-4.801-2.243c-9.887-4.761-19.243-10.585-28.033-17.143c5.918,4.415-1.265-1.103-2.605-2.219
			c-2.013-1.675-3.968-3.419-5.902-5.185c-4.19-3.825-8.145-7.901-11.936-12.119c-1.751-1.948-3.436-3.955-5.096-5.981
			c-0.916-1.116-3.836-4.931,0.336,0.488c-0.8-1.039-1.577-2.097-2.353-3.153c-3.371-4.592-6.458-9.387-9.356-14.289
			c-2.688-4.549-5.111-9.25-7.366-14.027c-0.566-1.199-1.104-2.411-1.642-3.623c-1.994-4.492,2.118,5.228,0.263,0.67
			c-1.173-2.884-2.233-5.812-3.247-8.756c-1.752-5.089-3.201-10.277-4.462-15.508c-0.637-2.641-1.179-5.303-1.688-7.971
			c-0.257-1.341-0.481-2.688-0.705-4.035c-0.257-1.544-1.114-8.166-0.191-0.81c-1.449-11.549-1.584-23.246-0.695-34.844
			c0.211-2.755,0.522-5.502,0.866-8.244c-0.912,7.266,0.383-1.968,0.697-3.686c1.055-5.768,2.476-11.464,4.119-17.09
			c1.5-5.134,3.302-10.176,5.279-15.144c1.791-4.5-2.086,4.846-0.159,0.41c0.528-1.216,1.085-2.42,1.642-3.624
			c1.295-2.801,2.699-5.55,4.144-8.275c2.467-4.654,5.202-9.163,8.087-13.568c1.439-2.197,2.953-4.343,4.49-6.472
			c0.824-1.141,3.754-4.927-0.335,0.385c1.066-1.384,2.168-2.74,3.276-4.091c6.919-8.441,14.728-16.131,23.11-23.11
			c1.007-0.838,2.033-1.654,3.059-2.469c-5.35,4.25-1.598,1.265-0.438,0.398c2.104-1.57,4.262-3.067,6.436-4.538
			c4.725-3.199,9.643-6.105,14.662-8.816c2.327-1.256,4.696-2.432,7.078-3.579c1.664-0.801,10.217-4.479,2.919-1.443
			c5.348-2.225,10.831-4.112,16.376-5.78c5.18-1.558,10.449-2.806,15.752-3.864c2.68-0.534,5.378-0.972,8.081-1.377
			c4.969-0.745-5.533,0.652-0.529,0.065c1.833-0.215,3.67-0.378,5.509-0.534c11.598-0.984,23.292-0.66,34.844,0.695
			c2.386,0.306,1.821,0.221-1.691-0.253c1.355,0.192,2.706,0.417,4.057,0.642c2.686,0.447,5.354,0.99,8.015,1.565
			c4.834,1.044,9.606,2.356,14.33,3.818c4.678,1.447,9.272,3.151,13.808,4.997c-6.781-2.759,1.612,0.808,3.18,1.547
			c2.391,1.128,4.742,2.34,7.077,3.579c4.268,2.262,8.41,4.753,12.47,7.368c1.84,1.185,3.644,2.427,5.438,3.681
			c1.075,0.752,2.133,1.529,3.19,2.305c3.867,2.839-4.187-3.259-0.409-0.304c7.908,6.187,15.194,13.147,21.903,20.61
			c1.459,1.624,2.869,3.291,4.265,4.968c0.839,1.007,1.654,2.033,2.469,3.059c-4.25-5.35-1.264-1.598-0.398-0.437
			c2.881,3.86,5.553,7.873,8.098,11.961c2.555,4.105,4.888,8.346,7.086,12.651c1.204,2.359,2.326,4.759,3.419,7.171
			c0.625,1.379,2.518,5.906-0.227-0.689c0.511,1.229,0.994,2.47,1.477,3.711c3.577,9.201,6.237,18.742,8.167,28.417
			c0.445,2.232,0.818,4.478,1.174,6.725c0.23,1.458,0.853,6.428-0.022-0.542c0.172,1.37,0.312,2.744,0.45,4.117
			C551.583,391.796,551.807,397.388,551.829,402.977c0.049,12.256,9.988,22.585,22.343,22.667
			c12.158,0.08,22.717-10.085,22.667-22.343c-0.201-49.917-19.492-97.715-53.665-134.029
			c-33.801-35.919-81.232-56.731-130.193-59.695c-50.063-3.031-99.04,15.141-137.032,47.262
			c-37.684,31.859-59.997,78.113-65.69,126.646c-5.581,47.573,8.727,98.116,37.9,136.003c29.808,38.712,72.693,66.392,121.245,74.47
			c49.437,8.227,101.046-1.983,142.545-30.542c40.11-27.604,69.388-69.67,80.081-117.315c3.139-13.983,4.752-28.471,4.81-42.799
			c0.05-12.258-10.062-22.586-22.343-22.667C562.263,380.553,551.878,390.719,551.829,402.977z"/>
	</g>
</g>
<g>
	<rect x="113.046" y="140.232" fill="none" width="536.426" height="475.285"/>
	<text transform="matrix(1.0214 0 0 1 121.3843 459.5176)"><tspan x="0" y="0" fill="#FFFFFF" font-family="'ChunkFive-Roman'" font-size="173.6201" letter-spacing="3.916">ST</tspan><tspan x="254.697" y="0" fill="#FFFFFF" font-family="'ChunkFive-Roman'" font-size="173.6201" letter-spacing="-3.916">AY</tspan></text>
	<rect x="113.046" y="140.232" fill="none" width="536.426" height="475.285"/>
	<text transform="matrix(1.0214 0 0 1 121.3843 459.5176)"><tspan x="0" y="0" fill="#FFFFFF" font-family="'ChunkFive-Roman'" font-size="173.6201" letter-spacing="3.916">ST</tspan><tspan x="254.697" y="0" fill="#FFFFFF" font-family="'ChunkFive-Roman'" font-size="173.6201" letter-spacing="-3.916">AY</tspan></text>
</g>
<rect x="84.784" y="140.232" fill="none" width="592.95" height="423.389"/>
<text transform="matrix(1.0214 0 0 1 237.7041 297.1602)"><tspan x="0" y="0" fill="#FFFFFF" font-family="'ChunkFive-Roman'" font-size="78.129">Pro</tspan><tspan x="127.896" y="0" fill="#FFFFFF" font-family="'ChunkFive-Roman'" font-size="78.129" letter-spacing="3.916">jec</tspan><tspan x="252.743" y="0" fill="#FFFFFF" font-family="'ChunkFive-Roman'" font-size="78.129">t</tspan></text>
<path fill="none" d="M761.043,434.302c0,205.36-170.037,371.838-379.783,371.838c-209.751,0-379.784-166.478-379.784-371.838
	c0-205.358,170.033-371.837,379.784-371.837C591.006,62.464,761.043,257.879,761.043,434.302z"/>
<text transform="matrix(0.4731 -0.9052 0.8863 0.4632 56.0103 279.4736)" fill="#FFFFFF" font-family="'ChunkFive-Roman'" font-size="52.086"> </text>
<text transform="matrix(0.547 -0.8625 0.8445 0.5356 70.1978 253.7822)" fill="#FFFFFF" font-family="'ChunkFive-Roman'" font-size="52.086"> </text>
<text transform="matrix(0.6165 -0.8143 0.7973 0.6036 86.4648 229.377)" fill="#FFFFFF" font-family="'ChunkFive-Roman'" font-size="52.086"> </text>
<text transform="matrix(0.7057 -0.7384 0.7229 0.6909 104.0117 206.5205)" fill="#FFFFFF" font-family="'ChunkFive-Roman'" font-size="52.086">S</text>
<text transform="matrix(0.7981 -0.6373 0.624 0.7814 141.4824 169.2236)" fill="#FFFFFF" font-family="'ChunkFive-Roman'" font-size="52.086">e</text>
<text transform="matrix(0.8648 -0.5434 0.532 0.8467 176.7842 142.4019)" fill="#FFFFFF" font-family="'ChunkFive-Roman'" font-size="52.086">r</text>
<text transform="matrix(0.9226 -0.4381 0.429 0.9033 208.8115 122.9839)" fill="#FFFFFF" font-family="'ChunkFive-Roman'" font-size="52.086">v</text>
<text transform="matrix(0.9657 -0.3326 0.3257 0.9455 252.8179 103.5112)" fill="#FFFFFF" font-family="'ChunkFive-Roman'" font-size="52.086">i</text>
<text transform="matrix(0.9954 -0.229 0.2242 0.9745 284.3716 93.2197)" fill="#FFFFFF" font-family="'ChunkFive-Roman'" font-size="52.086">c</text>
<text transform="matrix(1.0156 -0.1087 0.1064 0.9943 327.1172 84.3193)" fill="#FFFFFF" font-family="'ChunkFive-Roman'" font-size="52.086">e</text>
<text transform="matrix(1.0212 0.019 -0.0186 0.9998 371.0557 80.4331)" fill="#FFFFFF" font-family="'ChunkFive-Roman'" font-size="52.086">s</text>
<text transform="matrix(1.0138 0.1245 -0.1218 0.9925 413.6992 82.249)" fill="#FFFFFF" font-family="'ChunkFive-Roman'" font-size="52.086"> </text>
<text transform="matrix(0.9969 0.2222 -0.2176 0.976 442.4834 86.4341)" fill="#FFFFFF" font-family="'ChunkFive-Roman'" font-size="52.086">•</text>
<text transform="matrix(0.9715 0.3154 -0.3088 0.9511 475.8145 94.7666)" fill="#FFFFFF" font-family="'ChunkFive-Roman'" font-size="52.086"> </text>
<text transform="matrix(0.9283 0.4259 -0.417 0.9089 503.1006 103.8569)" fill="#FFFFFF" font-family="'ChunkFive-Roman'" font-size="52.086">T</text>
<text transform="matrix(0.8641 0.5446 -0.5332 0.846 550.2158 126.8564)" fill="#FFFFFF" font-family="'ChunkFive-Roman'" font-size="52.086">o</text>
<text transform="matrix(0.8074 0.6255 -0.6124 0.7905 588.7568 152.5557)" fill="#FFFFFF" font-family="'ChunkFive-Roman'" font-size="52.086"> </text>
<text transform="matrix(0.7551 0.6878 -0.6734 0.7393 611.6641 170.9888)" fill="#FFFFFF" font-family="'ChunkFive-Roman'" font-size="52.086">•</text>
<text transform="matrix(0.6989 0.7448 -0.7292 0.6843 636.7686 194.853)" fill="#FFFFFF" font-family="'ChunkFive-Roman'" font-size="52.086"> </text>
<text transform="matrix(0.6147 0.8157 -0.7986 0.6018 656.5605 215.9722)" fill="#FFFFFF" font-family="'ChunkFive-Roman'" font-size="52.086">A</text>
<text transform="matrix(0.5064 0.887 -0.8685 0.4958 690.8994 263.9937)" fill="#FFFFFF" font-family="'ChunkFive-Roman'" font-size="52.086">s</text>
<text transform="matrix(0.4029 0.9385 -0.9189 0.3945 711.2275 301.3169)" fill="#FFFFFF" font-family="'ChunkFive-Roman'" font-size="52.086">s</text>
<text transform="matrix(0.2982 0.9769 -0.9564 0.2919 727.0303 340.8555)" fill="#FFFFFF" font-family="'ChunkFive-Roman'" font-size="52.086">i</text>
<text transform="matrix(0.1792 1.0055 -0.9845 0.1754 736.0762 372.5547)" fill="#FFFFFF" font-family="'ChunkFive-Roman'" font-size="52.086">s</text>
<text transform="matrix(0.041 1.0205 -0.9992 0.0402 742.2383 414.1855)" fill="#FFFFFF" font-family="'ChunkFive-Roman'" font-size="52.086">t</text>
<text transform="matrix(-0.0626 1.0195 -0.9981 -0.0613 742.5859 449.207)" fill="#FFFFFF" font-family="'ChunkFive-Roman'" font-size="52.086"> </text>
<text transform="matrix(-0.1555 1.0095 -0.9883 -0.1522 740.1953 478.2891)" fill="#FFFFFF" font-family="'ChunkFive-Roman'" font-size="52.086">•</text>
<text transform="matrix(-0.2477 0.9909 -0.9701 -0.2425 734.1201 512.1426)" fill="#FFFFFF" font-family="'ChunkFive-Roman'" font-size="52.086"> </text>
<text transform="matrix(-0.3603 0.9557 -0.9357 -0.3528 726.9023 539.9795)" fill="#FFFFFF" font-family="'ChunkFive-Roman'" font-size="52.086">Y</text>
<text transform="matrix(-0.4886 0.8969 -0.8782 -0.4784 707.8994 586.9199)" fill="#FFFFFF" font-family="'ChunkFive-Roman'" font-size="52.086">o</text>
<text transform="matrix(-0.6039 0.8237 -0.8065 -0.5913 685.2422 626.5898)" fill="#FFFFFF" font-family="'ChunkFive-Roman'" font-size="52.086">u</text>
<text transform="matrix(-0.6961 0.7474 -0.7318 -0.6815 655.2314 665.2842)" fill="#FFFFFF" font-family="'ChunkFive-Roman'" font-size="52.086">t</text>
<text transform="matrix(-0.7794 0.6601 -0.6462 -0.7631 631.2354 690.3945)" fill="#FFFFFF" font-family="'ChunkFive-Roman'" font-size="52.086">h</text>
<rect y="441.899" fill="none" width="762.52" height="158.428"/>
<text transform="matrix(1.0214 0 0 1 114.4214 534.749)" fill="#FFFFFF" font-family="'ACaslonPro-Regular'" font-size="49.9158">Healthy • Informed • Safe</text>
</svg>
