<?xml version="1.0" encoding="utf-8"?>
<!-- Generator: Adobe Illustrator 14.0.0, SVG Export Plug-In  -->
<!DOCTYPE svg PUBLIC "-//W3C//DTD SVG 1.1//EN" "http://www.w3.org/Graphics/SVG/1.1/DTD/svg11.dtd" [
	<!ENTITY ns_flows "http://ns.adobe.com/Flows/1.0/">
]>
<svg version="1.1"
	 xmlns="http://www.w3.org/2000/svg" xmlns:xlink="http://www.w3.org/1999/xlink" xmlns:a="http://ns.adobe.com/AdobeSVGViewerExtensions/3.0/"
	 x="0px" y="0px" width="500px" height="500px" viewBox="0.5 0.5 500 500" enable-background="new 0.5 0.5 500 500"
	 xml:space="preserve">
<defs>
</defs>
<rect x="0.5" y="0.5" display="none" fill="#54C6FF" stroke="#FF0000" width="499.333" height="500"/>
<g display="none">
	<g display="inline">
		<path d="M401.329,251.337c-0.022,5.595-0.29,11.172-0.808,16.744c-0.128,1.375-0.289,2.746-0.45,4.117
			c-0.58,4.944,0.787-5.245,0.051-0.335c-0.472,3.146-1.069,6.273-1.717,9.389c-1.098,5.285-2.51,10.501-4.104,15.656
			c-0.791,2.557-1.672,5.084-2.583,7.601c-0.454,1.253-0.937,2.496-1.42,3.738c-0.325,0.826-0.656,1.648-0.993,2.469
			c1.373-3.261,1.594-3.809,0.659-1.641c-4.382,10.085-9.853,19.678-16.082,28.729c-0.986,1.433-6.455,8.681-1.945,2.824
			c-1.6,2.076-3.269,4.098-4.96,6.099c-3.663,4.333-7.588,8.439-11.658,12.389c-3.761,3.647-7.726,7.078-11.802,10.368
			c-3.748,3.024,4.303-3.278,0.463-0.368c-1.046,0.793-2.108,1.562-3.172,2.329c-2.484,1.795-5.036,3.494-7.613,5.153
			c-4.433,2.854-9.026,5.452-13.702,7.885c-2.348,1.222-4.737,2.361-7.14,3.472c-1.204,0.558-2.421,1.086-3.639,1.615
			c6.905-3.001,0.916-0.403-0.591,0.183c-10.473,4.071-21.38,6.971-32.441,8.902c-1.349,0.236-2.703,0.439-4.057,0.642
			c-4.969,0.746,5.533-0.651,0.529-0.064c-2.754,0.323-5.518,0.546-8.282,0.735c-6.069,0.417-12.16,0.44-18.237,0.22
			c-2.784-0.102-5.562-0.303-8.337-0.538c-1.733-0.147-11.074-1.354-3.805-0.324c-5.839-0.828-11.62-2.027-17.339-3.455
			c-5.212-1.301-10.343-2.91-15.406-4.698c-2.514-0.887-4.995-1.863-7.463-2.867c6.16,2.506,1.705,0.688,0.429,0.121
			c-1.615-0.717-3.209-1.477-4.801-2.243c-9.887-4.761-19.243-10.585-28.033-17.143c5.918,4.415-1.265-1.103-2.605-2.219
			c-2.013-1.675-3.968-3.419-5.902-5.185c-4.19-3.825-8.145-7.901-11.936-12.119c-1.751-1.948-3.436-3.955-5.096-5.981
			c-0.916-1.116-3.836-4.931,0.336,0.488c-0.8-1.039-1.577-2.097-2.353-3.153c-3.371-4.592-6.458-9.387-9.356-14.289
			c-2.688-4.549-5.111-9.25-7.366-14.027c-0.566-1.199-1.104-2.411-1.642-3.623c-1.994-4.492,2.118,5.228,0.263,0.67
			c-1.173-2.884-2.233-5.812-3.247-8.756c-1.752-5.089-3.201-10.277-4.462-15.508c-0.637-2.641-1.179-5.303-1.688-7.971
			c-0.257-1.341-0.481-2.688-0.705-4.035c-0.257-1.544-1.114-8.166-0.191-0.81c-1.449-11.549-1.584-23.246-0.695-34.844
			c0.211-2.755,0.522-5.502,0.866-8.244c-0.912,7.266,0.383-1.968,0.697-3.686c1.055-5.768,2.476-11.464,4.119-17.09
			c1.5-5.134,3.302-10.176,5.279-15.144c1.791-4.5-2.086,4.846-0.159,0.41c0.528-1.216,1.085-2.42,1.642-3.624
			c1.295-2.801,2.699-5.55,4.144-8.275c2.467-4.654,5.202-9.163,8.087-13.568c1.439-2.197,2.953-4.343,4.49-6.472
			c0.824-1.141,3.754-4.927-0.335,0.385c1.066-1.384,2.168-2.74,3.276-4.091c6.919-8.441,14.728-16.131,23.11-23.11
			c1.007-0.838,2.033-1.654,3.059-2.469c-5.35,4.25-1.598,1.265-0.438,0.398c2.104-1.57,4.262-3.067,6.436-4.538
			c4.725-3.199,9.643-6.105,14.662-8.816c2.327-1.256,4.696-2.432,7.078-3.579c1.664-0.801,10.217-4.479,2.919-1.443
			c5.348-2.225,10.831-4.112,16.376-5.78c5.18-1.558,10.449-2.806,15.752-3.864c2.68-0.534,5.378-0.972,8.081-1.377
			c4.969-0.745-5.533,0.652-0.529,0.065c1.833-0.215,3.67-0.378,5.509-0.534c11.598-0.984,23.292-0.66,34.844,0.695
			c2.386,0.306,1.821,0.221-1.691-0.253c1.355,0.192,2.706,0.417,4.057,0.642c2.686,0.447,5.354,0.99,8.015,1.565
			c4.834,1.044,9.606,2.356,14.33,3.818c4.678,1.447,9.272,3.151,13.808,4.997c-6.781-2.759,1.612,0.808,3.18,1.547
			c2.391,1.128,4.742,2.34,7.077,3.579c4.268,2.262,8.41,4.753,12.47,7.368c1.84,1.185,3.644,2.427,5.438,3.681
			c1.075,0.752,2.133,1.529,3.19,2.305c3.867,2.839-4.187-3.259-0.409-0.304c7.908,6.187,15.194,13.147,21.903,20.61
			c1.459,1.624,2.869,3.291,4.265,4.968c0.839,1.007,1.654,2.033,2.469,3.059c-4.25-5.35-1.264-1.598-0.398-0.437
			c2.881,3.86,5.553,7.873,8.098,11.961c2.555,4.105,4.888,8.346,7.086,12.651c1.204,2.359,2.326,4.759,3.419,7.171
			c0.625,1.379,2.518,5.906-0.227-0.689c0.511,1.229,0.994,2.47,1.477,3.711c3.577,9.201,6.237,18.742,8.167,28.417
			c0.445,2.232,0.818,4.478,1.174,6.725c0.23,1.458,0.853,6.428-0.022-0.542c0.172,1.37,0.312,2.744,0.45,4.117
			C401.083,240.156,401.307,245.749,401.329,251.337c0.049,12.256,9.988,22.585,22.343,22.667
			c12.158,0.08,22.717-10.085,22.667-22.343c-0.201-49.917-19.492-97.715-53.665-134.029
			c-33.801-35.919-81.232-56.731-130.193-59.695c-50.063-3.031-99.04,15.141-137.032,47.262
			c-37.684,31.859-59.997,78.113-65.69,126.646c-5.581,47.573,8.727,98.116,37.9,136.003c29.808,38.712,72.693,66.392,121.245,74.47
			c49.437,8.227,101.046-1.983,142.545-30.542c40.11-27.604,69.388-69.67,80.081-117.315c3.139-13.983,4.752-28.471,4.81-42.799
			c0.05-12.258-10.062-22.586-22.343-22.667C411.763,228.913,401.378,239.08,401.329,251.337z"/>
	</g>
</g>
<g>
	<g>
		<linearGradient id="SVGID_1_" gradientUnits="userSpaceOnUse" x1="125.3813" y1="218.4272" x2="399.6982" y2="218.4272">
			<stop  offset="0" style="stop-color:#FFFFFF"/>
			<stop  offset="1" style="stop-color:#000000"/>
		</linearGradient>
		<path fill="url(#SVGID_1_)" d="M132.381,242.959h14.88c0,6.72,6.72,7.84,10.08,8c2.8,0,6.8-0.641,6.8-4
			c0-6.24-30.721-3.601-30.721-24.001c0-11.84,11.2-17.2,19.041-17.2c6.72,0,13.52,2.16,16.72,8.16l0.8-6.72h13.76v20.081h-14.48
			c0-5.92-4.64-9.28-10.24-9.28c-2.32,0-5.52,1.44-5.52,4.24c0,8.24,31.681,6.32,31.681,25.12c0,12.48-11.68,16.961-21.201,16.961
			c-8.08,0-13.68-3.761-16.72-7.36l-0.88,6.16h-14V242.959z"/>
		<linearGradient id="SVGID_2_" gradientUnits="userSpaceOnUse" x1="125.3813" y1="218.4272" x2="399.6982" y2="218.4272">
			<stop  offset="0" style="stop-color:#FFFFFF"/>
			<stop  offset="1" style="stop-color:#000000"/>
		</linearGradient>
		<path fill="url(#SVGID_2_)" d="M242.062,227.999h-11.76v-10.24h-6.72v34.72h6.64v10.641h-29.761v-10.641h6.56v-34.72h-6.88v10.24
			h-11.76v-20.801h53.681V227.999z"/>
		<linearGradient id="SVGID_3_" gradientUnits="userSpaceOnUse" x1="125.3813" y1="218.4272" x2="399.6982" y2="218.4272">
			<stop  offset="0" style="stop-color:#FFFFFF"/>
			<stop  offset="1" style="stop-color:#000000"/>
		</linearGradient>
		<path fill="url(#SVGID_3_)" d="M275.82,263.119v-10.48h7.601l-1.681-5.439h-16.4l-1.68,5.439h6.24v10.48h-25.44v-10.48h5.44
			l10.8-35.121h-3.28v-10.32h30.721l14.16,45.441h5.601v10.48H275.82z M278.78,237.599l-5.28-17.28l-5.199,17.28H278.78z"/>
		<linearGradient id="SVGID_4_" gradientUnits="userSpaceOnUse" x1="125.3813" y1="218.4272" x2="399.6982" y2="218.4272">
			<stop  offset="0" style="stop-color:#FFFFFF"/>
			<stop  offset="1" style="stop-color:#000000"/>
		</linearGradient>
		<path fill="url(#SVGID_4_)" d="M338.94,232.398c0.32-1.6,2.08-4.96,2.96-6.88l4.4-8.08h-4.4v-10.24h21.521v10.24h-4.32l-14.8,26
			v9.28h4.479v10.4H323.18v-10.4h4.561v-9.44l-15.521-25.84h-3.92v-10.24h27.36v10.24h-4.16l4.641,8.48
			c0.479,1.52,2.159,5.12,2.479,6.48H338.94z"/>
	</g>
	<rect x="125.5" y="116" fill="none" width="242" height="219"/>
	
		<text transform="matrix(1 0 0 1 130.3813 263.1191)" fill="#FFFFFF" stroke="#FFFFFF" font-family="'ChunkFive-Roman'" font-size="80">STAY</text>
</g>
<rect x="112.75" y="116" fill="none" width="267.5" height="195.087"/>
<text transform="matrix(1 0 0 1 184.5454 188.3086)" fill="#FFFFFF" font-family="'ChunkFive-Roman'" font-size="36">Project</text>
<path fill="none" d="M417.834,251.5c0,94.625-76.709,171.334-171.334,171.334S75.166,346.125,75.166,251.5
	S151.875,80.166,246.5,80.166S417.834,170.208,417.834,251.5z"/>
<text transform="matrix(0.4553 -0.8903 0.8903 0.4553 99.9604 180.0913)"><tspan x="0" y="0" fill="#FFFFFF" font-family="'ChunkFive-Roman'" font-size="24"> </tspan><tspan x="13.239" y="0.295" fill="#FFFFFF" font-family="'ChunkFive-Roman'" font-size="24" rotate="4.664"> </tspan><tspan x="26.409" y="1.665" fill="#FFFFFF" font-family="'ChunkFive-Roman'" font-size="24" rotate="9.311"> </tspan><tspan x="39.205" y="3.846" fill="#FFFFFF" font-family="'ChunkFive-Roman'" font-size="24" rotate="15.777">S</tspan><tspan x="61.99" y="10.895" fill="#FFFFFF" font-family="'ChunkFive-Roman'" font-size="24" rotate="23.406">e</tspan><tspan x="80.119" y="19.263" fill="#FFFFFF" font-family="'ChunkFive-Roman'" font-size="24" rotate="29.864">r</tspan><tspan x="94.618" y="27.898" fill="#FFFFFF" font-family="'ChunkFive-Roman'" font-size="24" rotate="36.644">v</tspan><tspan x="111.656" y="41.301" fill="#FFFFFF" font-family="'ChunkFive-Roman'" font-size="24" rotate="43.115">i</tspan><tspan x="122.4" y="51.701" fill="#FFFFFF" font-family="'ChunkFive-Roman'" font-size="24" rotate="49.27">c</tspan><tspan x="134.902" y="66.855" fill="#FFFFFF" font-family="'ChunkFive-Roman'" font-size="24" rotate="56.248">e</tspan><tspan x="145.632" y="83.482" fill="#FFFFFF" font-family="'ChunkFive-Roman'" font-size="24" rotate="64.005">s</tspan><tspan x="153.777" y="101" fill="#FFFFFF" font-family="'ChunkFive-Roman'" font-size="24" rotate="69.579"> </tspan><tspan x="158.056" y="113.339" fill="#FFFFFF" font-family="'ChunkFive-Roman'" font-size="24" rotate="75.255">•</tspan><tspan x="161.601" y="128.393" fill="#FFFFFF" font-family="'ChunkFive-Roman'" font-size="24" rotate="80.781"> </tspan><tspan x="163.577" y="141.2" fill="#FFFFFF" font-family="'ChunkFive-Roman'" font-size="24" rotate="87.556">T</tspan><tspan x="164.011" y="164.806" fill="#FFFFFF" font-family="'ChunkFive-Roman'" font-size="24" rotate="95.211">o</tspan><tspan x="161.578" y="185.536" fill="#FFFFFF" font-family="'ChunkFive-Roman'" font-size="24" rotate="100.774"> </tspan><tspan x="158.86" y="198.513" fill="#FFFFFF" font-family="'ChunkFive-Roman'" font-size="24" rotate="105.329">•</tspan><tspan x="154.414" y="213.485" fill="#FFFFFF" font-family="'ChunkFive-Roman'" font-size="24" rotate="109.784"> </tspan><tspan x="149.985" y="225.769" fill="#FFFFFF" font-family="'ChunkFive-Roman'" font-size="24" rotate="115.862">A</tspan><tspan x="137.794" y="249.429" fill="#FFFFFF" font-family="'ChunkFive-Roman'" font-size="24" rotate="122.943">s</tspan><tspan x="127.038" y="265.344" fill="#FFFFFF" font-family="'ChunkFive-Roman'" font-size="24" rotate="129.193">s</tspan><tspan x="114.516" y="279.962" fill="#FFFFFF" font-family="'ChunkFive-Roman'" font-size="24" rotate="135.168">i</tspan><tspan x="103.778" y="290.273" fill="#FFFFFF" font-family="'ChunkFive-Roman'" font-size="24" rotate="141.653">s</tspan><tspan x="88.523" y="301.665" fill="#FFFFFF" font-family="'ChunkFive-Roman'" font-size="24" rotate="148.979">t</tspan><tspan x="74.792" y="309.359" fill="#FFFFFF" font-family="'ChunkFive-Roman'" font-size="24" rotate="154.935"> </tspan><tspan x="62.739" y="314.708" fill="#FFFFFF" font-family="'ChunkFive-Roman'" font-size="24" rotate="159.947">•</tspan><tspan x="48.034" y="319.683" fill="#FFFFFF" font-family="'ChunkFive-Roman'" font-size="24" rotate="165.008"> </tspan><tspan x="35.437" y="322.944" fill="#FFFFFF" font-family="'ChunkFive-Roman'" font-size="24" rotate="171.397">Y</tspan><tspan x="12.772" y="325.833" fill="#FFFFFF" font-family="'ChunkFive-Roman'" font-size="24" rotate="179.08">o</tspan><tspan x="-7.833" y="325.759" fill="#FFFFFF" font-family="'ChunkFive-Roman'" font-size="24" rotate="-173.428">u</tspan><tspan x="-29.71" y="322.648" fill="#FFFFFF" font-family="'ChunkFive-Roman'" font-size="24" rotate="-166.814">t</tspan><tspan x="-44.906" y="318.885" fill="#FFFFFF" font-family="'ChunkFive-Roman'" font-size="24" rotate="-160.098">h</tspan></text>
<rect x="74.5" y="255" fill="none" width="344" height="73"/>
<text transform="matrix(1 0 0 1 126.1201 297.7832)" fill="#FFFFFF" font-family="'ACaslonPro-Regular'" font-size="23">Healthy • Informed • Safe</text>
</svg>
