<?xml version="1.0" encoding="iso-8859-1"?>
<!-- Generator: Adobe Illustrator 17.0.0, SVG Export Plug-In . SVG Version: 6.00 Build 0)  -->
<!DOCTYPE svg PUBLIC "-//W3C//DTD SVG 1.1//EN" "http://www.w3.org/Graphics/SVG/1.1/DTD/svg11.dtd">
<svg version="1.1" id="Capa_1" xmlns="http://www.w3.org/2000/svg" xmlns:xlink="http://www.w3.org/1999/xlink" x="0px" y="0px"
	 width="64px" height="64px" viewBox="0 0 64 64" style="enable-background:new 0 0 64 64;" xml:space="preserve">
<g>
	<path d="M62,61.3c-3.435-8.479-14.397-12.577-22.083-14.482c-0.59-0.845-1.043-2.158-0.479-6.514
		c2.468,4.602,8.313,3.321,8.313,3.321C46.875,43,46.625,41.75,48.375,40s4.5-3.25,3.25-4.75s-5.75-1-1-6.25s5.75,2.375,0-15.833
		C44.875-5.042,31.125,4,31.125,4c-18.75-7.25-13.875,8.375-17.5,10.25s-1.75,7.375,1.266,10.586
		c3.016,3.211,0.359,4.289-1.766,6.289s-1.25,6,3.5,6.625S7.889,39.346,17.75,44c0.975,0.46,4.489-0.146,8.388-1.049
		c0.072,1.788-0.135,2.747-0.449,3.393C17.515,48.001,4.111,52.037,2,61.3h30H62z M25.983,37.006
		c-0.167-0.166-0.332-0.333-0.496-0.5c-1.002-1.017-1.956-2.034-2.752-2.923l-0.998-5.461c-1.274-7.519-0.931-13.067,1.014-16.536
		c0.161,0.532,0.693,1.141,2.124,1.58c3.125,0.958,9.25-1.292,10.25,2.708s1.75,5.375,3.375,5.625s3.125-1.328,3.125,3.336
		c0,1.993,1.096,1.694,2.35,0.701c-0.105,0.834-0.228,1.689-0.379,2.579l-0.999,5.467c-0.795,0.888-1.749,1.906-2.752,2.923
		c-0.164,0.167-0.329,0.334-0.496,0.5c-0.168,0.168-0.338,0.334-0.507,0.5c-1.131,1.108-2.274,2.158-3.291,2.983
		c-1.245,1.01-2.298,1.683-2.884,1.683c-0.315,0-0.765-0.195-1.306-0.529c-1.289-0.797-3.099-2.401-4.871-4.137
		C26.321,37.34,26.151,37.174,25.983,37.006z M23.625,51.258c0-0.915,0.454-1.823,1.313-2.626l0.107-0.101
		c0.212-0.188,0.448-0.371,0.702-0.543l0.15-0.152c0.359-0.452,0.723-0.909,0.965-1.723c0.221-0.742,0.336-1.794,0.258-3.395
		c-0.047-0.969-0.166-2.14-0.379-3.579c1.13,1.064,2.304,2.083,3.361,2.833c1.019,0.724,1.927,1.199,2.564,1.199
		c1.153,0,3.187-1.536,5.184-3.347c0.248-0.225,0.495-0.455,0.74-0.686c-0.025,0.168-0.046,0.326-0.069,0.488
		c-0.543,3.909-0.358,5.762,0.09,6.879c0.238,0.595,0.55,0.987,0.861,1.379l0.111,0.103c0.265,0.179,0.506,0.367,0.72,0.558
		l0.091,0.085c0.858,0.803,1.312,1.711,1.312,2.626c0,2.826-4.056,5.125-9.041,5.125S23.625,54.084,23.625,51.258z"/>
</g>
</svg>
